Coordinates
version=1
nRows=9
nColumns=63
inDegrees=yes

Units are S.I. units (second, meters, Newtons, ...)
If the header above contains a line with 'inDegrees', this indicates whether rotational values are in degrees (yes) or radians (no).

endheader
time	pelvis_tilt	pelvis_list	pelvis_rotation	pelvis_tx	pelvis_ty	pelvis_tz	hip_flexion_r	hip_adduction_r	hip_rotation_r	knee_angle_r	knee_angle_r_beta	ankle_angle_r	subtalar_angle_r	mtp_angle_r	hip_flexion_l	hip_adduction_l	hip_rotation_l	knee_angle_l	knee_angle_l_beta	ankle_angle_l	subtalar_angle_l	mtp_angle_l	L5_S1_Flex_Ext	L5_S1_Lat_Bending	L5_S1_axial_rotation	L4_L5_Flex_Ext	L4_L5_Lat_Bending	L4_L5_axial_rotation	L3_L4_Flex_Ext	L3_L4_Lat_Bending	L3_L4_axial_rotation	L2_L3_Flex_Ext	L2_L3_Lat_Bending	L2_L3_axial_rotation	L1_L2_Flex_Ext	L1_L2_Lat_Bending	L1_L2_axial_rotation	L1_T12_Flex_Ext	L1_T12_Lat_Bending	L1_T12_axial_rotation	Abs_r3	Abs_r2	Abs_r1	Abs_t1	Abs_t2	neck_flexion	neck_bending	neck_rotation	arm_flex_r	arm_add_r	arm_rot_r	elbow_flex_r	pro_sup_r	wrist_flex_r	wrist_dev_r	arm_flex_l	arm_add_l	arm_rot_l	elbow_flex_l	pro_sup_l	wrist_flex_l	wrist_dev_l
      2.90000000	      1.04966111	     -0.80486926	    101.21126209	      0.25053727	      0.74424603	      0.57696837	     -0.12566417	     -1.25721040	    -20.90177404	      8.37787393	      0.14622148	     29.04215227	      3.17134706	      0.00000000	     -1.03899233	      0.75382003	     22.78223966	      2.93244735	      0.05118086	     25.85081081	    -10.88338121	      0.00000000	     -0.00895408	     -0.13611824	     -0.86301261	     -0.01662863	     -0.18103725	     -0.91695089	     -0.01471066	     -0.33095788	     -0.91695089	     -0.01023362	     -0.33095788	     -0.75513603	     -0.00831476	     -0.27757231	     -0.70119774	     -0.00511636	     -0.21084715	     -0.64725946	     -0.06395812	     -1.53979670	     -4.79981722	      0.00000000	      0.00000000	     -2.40721945	      0.43303347	     -5.10582707	     28.08880102	      2.74804313	     25.74389244	    149.73503089	     88.86013826	     -7.54328196	     -1.24148259	     18.39295830	      0.91829599	     16.19591510	    149.76757572	     87.07409170	     -1.04823160	    -20.68690499
      2.91666667	      1.07704809	     -1.02546158	    101.26488393	      0.25033078	      0.74438354	      0.57611344	     -0.09660494	     -1.27842485	    -21.92767754	      7.97607396	      0.13920875	     29.26485943	      4.34151462	      0.00000000	     -0.88277876	      0.76545752	     23.08371662	      2.84274668	      0.04961529	     25.66196956	    -11.20711226	      0.00000000	      0.03178194	     -0.13405342	     -0.85453563	      0.05902225	     -0.17829105	     -0.90794411	      0.05221455	     -0.32593750	     -0.90794411	      0.03632358	     -0.32593750	     -0.74771867	      0.02951271	     -0.27336174	     -0.69431020	      0.01816020	     -0.20764875	     -0.64090172	      0.22701524	     -1.51643915	     -4.75267080	      0.00000000	      0.00000000	     -1.56847643	      0.21963402	     -5.68469189	     27.10573071	      2.44316263	     25.16006888	    149.71328096	     88.64690635	     -6.73528131	     -0.15449494	     17.94165091	      0.85142596	     15.35970958	    149.71117484	     87.80917555	     -3.14426009	    -18.88806809
      2.93333333	      1.15264381	     -1.20213754	    101.35272314	      0.25007583	      0.74460809	      0.57547816	     -0.11382492	     -1.18174285	    -22.11117294	      7.45871441	      0.13017912	     29.19551824	      4.44229406	      0.00000000	     -0.63227851	      0.70147703	     21.29048499	      2.95355394	      0.05154924	     26.32844165	     -8.49906995	      0.00000000	      0.05941729	     -0.13295515	     -0.84375599	      0.11034384	     -0.17683035	     -0.89649074	      0.09761666	     -0.32326715	     -0.89649074	      0.06790802	     -0.32326715	     -0.73828649	      0.05517489	     -0.27112214	     -0.68555174	      0.03395104	     -0.20594753	     -0.63281699	      0.42441173	     -1.50401525	     -4.69271768	      0.00000000	      0.00000000	     -0.66644664	      0.18619556	     -6.48889953	     26.09843411	      1.77608057	     23.98470193	    149.67199044	     88.72422742	     -6.69151080	      1.09471330	     17.60894914	      0.83679498	     14.54686699	    149.64165650	     88.32633893	     -5.15803686	    -16.30698503
      2.95000000	      1.31115680	     -1.33317786	    101.34376191	      0.24977105	      0.74475779	      0.57487474	     -0.10314639	     -0.98965480	    -21.59788302	      7.03413134	      0.12276875	     29.03399148	      3.79523513	      0.00000000	     -0.54114793	      0.60163337	     21.87160204	      2.80922071	      0.04903015	     26.03683664	     -9.49294654	      0.00000000	      0.08212118	     -0.12104437	     -0.79549268	      0.15250724	     -0.16098901	     -0.84521097	      0.13491688	     -0.29430728	     -0.84521097	      0.09385629	     -0.29430728	     -0.69605609	      0.07625773	     -0.24683368	     -0.64633780	      0.04692404	     -0.18749773	     -0.59661951	      0.58658336	     -1.36927813	     -4.42429162	      0.00000000	      0.00000000	      0.07598228	      0.09492271	     -7.34218650	     25.01631308	      1.02996893	     21.87807993	    149.58758824	     88.95385825	     -5.52785431	      2.70070413	     17.38846036	      0.85180573	     13.82880613	    149.53052668	     88.70631818	     -6.87626198	    -13.66132530
      2.96666667	      1.50335572	     -1.37452017	    101.27445063	      0.24939765	      0.74484011	      0.57440025	     -0.16249920	     -0.74780062	    -20.66765901	      6.63036246	      0.11572166	     28.74143835	      2.75748917	      0.00000000	     -0.54844520	      0.45388652	     22.20536784	      2.62110357	      0.04574689	     25.83780080	    -10.21435734	      0.00000000	      0.09511503	     -0.09592118	     -0.73103019	      0.17663812	     -0.12757517	     -0.77671957	      0.15626448	     -0.23322276	     -0.77671957	      0.10870697	     -0.23322276	     -0.63965141	      0.08832382	     -0.19560247	     -0.59396203	      0.05434873	     -0.14858191	     -0.54827264	      0.67939715	     -1.08507958	     -4.06577058	      0.00000000	      0.00000000	      0.52566598	     -0.13903036	     -7.75851980	     24.17797709	      0.17230372	     19.87616798	    149.41856886	     89.16905100	     -4.60142514	      4.66901349	     17.20245619	      0.88304795	     12.95307419	    149.40170533	     88.92199072	     -7.82829169	    -11.35166173
      2.98333333	      1.57168769	     -1.33855159	    100.95160590	      0.24943225	      0.74489140	      0.57420102	     -0.23178667	     -0.63982529	    -19.22804944	      6.38031212	      0.11135745	     28.47081115	      1.49068748	      0.00000000	     -0.51397645	      0.42802180	     20.31546828	      2.75658538	      0.04811149	     26.47268446	     -8.20548004	      0.00000000	      0.09463723	     -0.08109402	     -0.61392074	      0.17575080	     -0.10785504	     -0.65229079	      0.15547950	     -0.19717199	     -0.65229079	      0.10816089	     -0.19717199	     -0.53718065	      0.08788013	     -0.16536692	     -0.49881060	      0.05407571	     -0.12561463	     -0.46044055	      0.67598426	     -0.91735172	     -3.41444298	      0.00000000	      0.00000000	      0.72821387	     -0.26555871	     -8.00070537	     23.59655351	     -0.58997469	     17.83307850	    149.05199301	     89.31076185	     -3.05472612	      6.95663997	     17.14795470	      0.80116909	     12.03633492	    149.28550003	     89.06156101	     -8.21107530	     -9.06530900
      3.00000000	      1.79171375	     -1.18727825	    100.98784789	      0.24893395	      0.74490226	      0.57429546	     -0.40445999	     -0.40448395	    -18.78362292	      6.19128696	      0.10805834	     28.33301749	      1.11448957	      0.00000000	     -0.67198540	      0.22841005	     20.79042771	      2.60187251	      0.04541124	     26.32797678	     -9.02840519	      0.00000000	      0.09129519	     -0.03559925	     -0.62528697	      0.16954430	     -0.04734701	     -0.66436740	      0.14998887	     -0.08655602	     -0.66436740	      0.10434127	     -0.08655602	     -0.54712610	      0.08477671	     -0.07259400	     -0.50804566	      0.05216607	     -0.05514324	     -0.46896523	      0.65211241	     -0.40270587	     -3.47765852	      0.00000000	      0.00000000	      0.46068875	     -0.60856041	     -7.32824723	     23.64785569	     -1.22650499	     16.44982407	    147.76394044	     89.38712103	     -2.09119438	      7.54890235	     16.98111731	      0.63454984	     11.14425230	    149.19295605	     89.13759648	     -8.74387559	     -8.00853353
      3.01666667	      1.84994809	     -0.93884985	    101.06417512	      0.24879539	      0.74519211	      0.57475591	     -0.64358112	     -0.30062382	    -18.37462337	      6.09922226	      0.10645151	     28.20521704	      0.64816717	      0.00000000	     -0.85602268	      0.16284473	     20.71553978	      2.64109981	      0.04609589	     26.42986667	     -8.92592348	      0.00000000	      0.07478480	     -0.00515701	     -0.71225811	      0.13888284	     -0.00685883	     -0.75677425	      0.12286394	     -0.01253876	     -0.75677425	      0.08547154	     -0.01253876	     -0.62322585	      0.06944516	     -0.01051618	     -0.57870972	      0.04273203	     -0.00798821	     -0.53419359	      0.53418032	     -0.05833716	     -3.96136595	      0.00000000	      0.00000000	     -0.21539102	     -0.94552490	     -6.12945915	     24.15111222	     -1.32117247	     15.49037089	    145.50383849	     89.41652593	     -0.90982115	      7.29200354	     16.74890060	      0.25900452	      9.97352928	    149.14222059	     89.17297023	     -8.96234899	     -7.83499364
      3.03333333	      1.88719282	     -0.67207212	    101.25325364	      0.24869348	      0.74547298	      0.57541791	     -0.87194551	     -0.19655284	    -17.78958510	      6.05387115	      0.10565998	     27.98295356	     -0.33673482	      0.00000000	     -1.01890448	      0.11021104	     21.07137844	      2.74612484	      0.04792892	     26.36197015	     -9.37386568	      0.00000000	      0.05906441	      0.02225130	     -0.86296548	      0.10968851	      0.02959423	     -0.91690083	      0.09703692	      0.05410181	     -0.91690083	      0.06750471	      0.05410181	     -0.75509480	      0.05484721	      0.04537485	     -0.70115946	      0.03374940	      0.03446726	     -0.64722411	      0.42189116	      0.25171114	     -4.79955513	      0.00000000	      0.00000000	     -1.25705563	     -1.21888801	     -4.57368129	     25.07013145	     -1.07221726	     14.99755842	    142.81684872	     89.41450684	     -0.53420127	      6.98817112	     16.59582249	     -0.24321595	      8.80670208	    149.15784899	     89.19262873	     -9.12043069	     -8.29462593
